<svg version="1" xmlns="http://www.w3.org/2000/svg" width="682.667" height="682.667" viewBox="0 0 512.000000 512.000000"><path d="M0 129v129.1l32.1-.1c17.6-.1 32.3.1 32.6.4.3.2.5 14.3.4 31.3l-.1 30.8-32.5.3L0 321v191h512V321h-59.9l-.3-30.3c-.2-16.6-.1-30.8.1-31.5.2-.9 7.1-1.2 30.2-1.2H512V0H0v129zm191.8 128.8c.9.3 1.2 7.6 1.2 31.8V321l-31.7-.2-31.8-.3-.2-30.5c-.1-16.8-.1-31 .2-31.7.3-.9 8-1.2 30.7-1.1 16.7.1 30.9.3 31.6.6zM382.4 289l.1 31.5-29.2.3-29.3.2.1-31.4v-31.5l6.2-.4c3.4-.2 16.5-.3 29.1-.3l23 .1V289z"/></svg>